<?xml version="1.0" encoding="UTF-8"?>
<svg width="96px" height="73px" viewBox="0 0 96 73" version="1.1" xmlns="http://www.w3.org/2000/svg" xmlns:xlink="http://www.w3.org/1999/xlink">
    <!-- Generator: Sketch 55.2 (78181) - https://sketchapp.com -->
    <title>wayhome_icon_neutral800</title>
    <desc>Created with Sketch.</desc>
    <g id="wayhome_icon_neutral800" stroke="none" stroke-width="1" fill="none" fill-rule="evenodd">
        <path d="M93.665,0.283 L81.639,0.283 C80.743,0.283 79.956,0.986 79.715,1.848 L69.686,41.918 L49.318,20.643 C48.922,20.2 48.377,19.978 47.832,19.978 C47.287,19.978 46.742,20.2 46.346,20.643 L25.979,41.918 L15.949,1.848 C15.709,0.986 14.921,0.283 14.025,0.283 L1.999,0.283 C0.694,0.283 -0.261,1.62 0.064,2.885 L17.247,71.602 C17.476,72.486 18.273,73.001 19.183,73.001 L30.143,73.001 C31.245,73.001 32.141,72.21 32.141,71.106 L32.141,58.835 C32.141,58.366 32.304,57.913 32.604,57.555 L46.298,43.354 C47.098,42.396 48.567,42.396 49.366,43.354 L62.93,57.555 C63.231,57.913 63.393,58.366 63.393,58.835 L63.393,71.108 C63.393,72.211 64.288,73.001 65.391,73.001 L76.482,73.001 C77.392,73.001 78.189,72.486 78.417,71.602 L95.601,2.885 C95.925,1.62 94.97,0.283 93.665,0.283" id="Fill-1" fill="#051033"></path>
    </g>
</svg>